<?xml version="1.0" encoding="UTF-8" standalone="no"?>
<!DOCTYPE svg PUBLIC "-//W3C//DTD SVG 1.1//EN" "http://www.w3.org/Graphics/SVG/1.1/DTD/svg11.dtd">
<svg width="100%" height="100%" viewBox="0 0 2776 2481" version="1.1" xmlns="http://www.w3.org/2000/svg" xmlns:xlink="http://www.w3.org/1999/xlink" xml:space="preserve" xmlns:serif="http://www.serif.com/" style="fill-rule:evenodd;clip-rule:evenodd;stroke-linecap:round;">
    <g transform="matrix(7.28975,0,0,7.28975,-513.065,-4480.91)">
        <rect x="207.7" y="861.24" width="216.84" height="7.328" style="fill:none;stroke:rgb(109,109,109);stroke-width:0.69px;"/>
        <rect x="207.7" y="868.56" width="66.662" height="76.208" style="fill:none;stroke:rgb(109,109,109);stroke-width:0.69px;"/>
        <rect x="218.8" y="878.65" width="42.488" height="15.388" style="fill:none;stroke:rgb(109,109,109);stroke-width:0.69px;"/>
        <rect x="218.8" y="903.53" width="42.488" height="25.647" style="fill:none;stroke:rgb(109,109,109);stroke-width:0.69px;"/>
        <ellipse cx="240.04" cy="916.35" rx="4.271" ry="4.273" style="fill:none;stroke:rgb(109,109,109);stroke-width:0.69px;"/>
        <ellipse cx="240.04" cy="886.19" rx="4.271" ry="4.273" style="fill:none;stroke:rgb(109,109,109);stroke-width:0.69px;"/>
        <rect x="357.88" y="868.56" width="66.662" height="76.208" style="fill:none;stroke:rgb(109,109,109);stroke-width:0.69px;"/>
        <rect x="368.97" y="878.65" width="42.488" height="15.388" style="fill:none;stroke:rgb(109,109,109);stroke-width:0.69px;"/>
        <rect x="368.97" y="903.53" width="42.488" height="25.647" style="fill:none;stroke:rgb(109,109,109);stroke-width:0.69px;"/>
        <ellipse cx="390.21" cy="916.35" rx="4.271" ry="4.273" style="fill:none;stroke:rgb(109,109,109);stroke-width:0.69px;"/>
        <ellipse cx="390.21" cy="886.19" rx="4.271" ry="4.273" style="fill:none;stroke:rgb(109,109,109);stroke-width:0.69px;"/>
        <g transform="matrix(1,0,0,1,2.9583,-0.181)">
            <ellipse cx="399.6" cy="849.69" rx="4.389" ry="4.391" style="fill:none;stroke:rgb(109,109,109);stroke-width:0.69px;"/>
        </g>
        <rect x="381.32" y="839.25" width="16.849" height="20.518" style="fill:none;stroke:rgb(109,109,109);stroke-width:0.69px;"/>
        <rect x="213.12" y="738.31" width="37.384" height="46.884" style="fill:none;stroke:rgb(109,109,109);stroke-width:0.69px;"/>
        <g transform="matrix(1.9923,0,0,1.9697,153.78,-916.75)">
            <path d="M48.077,863.42L34.017,863.42L41.047,851.243L48.077,863.42Z" style="fill:none;stroke:rgb(109,109,109);stroke-width:0.35px;"/>
        </g>
        <g transform="matrix(1.4558,0,0,1.4545,164.35,-471.36)">
            <path d="M48.077,863.42L34.017,863.42L41.047,851.243L48.077,863.42Z" style="fill:none;stroke:rgb(109,109,109);stroke-width:0.47px;"/>
        </g>
        <ellipse cx="226.25" cy="748.72" rx="6.079" ry="6.081" style="fill:none;stroke:rgb(109,109,109);stroke-width:0.69px;"/>
        <rect x="84.295" y="748.93" width="104.13" height="194.73" style="fill:none;stroke:rgb(109,109,109);stroke-width:0.69px;"/>
        <rect x="84.295" y="887.71" width="104.13" height="4.397" style="fill:none;stroke:rgb(109,109,109);stroke-width:0.69px;"/>
        <rect x="84.295" y="819.62" width="104.13" height="4.397" style="fill:none;stroke:rgb(109,109,109);stroke-width:0.69px;"/>
        <g transform="matrix(-3.82857e-16,-1,1,-3.82857e-16,0,0)">
            <rect x="-943.66" y="134.16" width="194.73" height="4.395" style="fill:none;stroke:rgb(109,109,109);stroke-width:0.69px;"/>
        </g>
        <g transform="matrix(0.95208,0.30586,-0.30569,0.95213,0,0)">
            <rect x="392.43" y="699.84" width="8.37" height="31.255" style="fill:none;stroke:rgb(109,109,109);stroke-width:0.69px;"/>
        </g>
        <g transform="matrix(0.95476,0.29736,-0.2972,0.95481,0,0)">
            <rect x="395.62" y="700.34" width="8.37" height="31.255" style="fill:none;stroke:rgb(109,109,109);stroke-width:0.69px;"/>
        </g>
        <g transform="matrix(0.94899,0.31531,-0.31514,0.94905,0,0)">
            <rect x="418.59" y="689.56" width="8.37" height="31.255" style="fill:none;stroke:rgb(109,109,109);stroke-width:0.69px;"/>
        </g>
        <g transform="matrix(0.94899,0.31531,-0.31514,0.94905,0,0)">
            <rect x="390.52" y="698.88" width="8.37" height="31.255" style="fill:none;stroke:rgb(109,109,109);stroke-width:0.69px;"/>
        </g>
        <rect x="115.23" y="855.38" width="8.37" height="31.256" style="fill:none;stroke:rgb(109,109,109);stroke-width:0.69px;"/>
        <rect x="124.58" y="855.38" width="8.37" height="31.256" style="fill:none;stroke:rgb(109,109,109);stroke-width:0.69px;"/>
        <rect x="96.537" y="855.38" width="8.37" height="31.256" style="fill:none;stroke:rgb(109,109,109);stroke-width:0.69px;"/>
        <rect x="105.88" y="855.38" width="8.37" height="31.256" style="fill:none;stroke:rgb(109,109,109);stroke-width:0.69px;"/>
        <rect x="87.191" y="855.38" width="8.37" height="31.256" style="fill:none;stroke:rgb(109,109,109);stroke-width:0.69px;"/>
        <rect x="92.318" y="789.14" width="37.384" height="28.379" style="fill:none;stroke:rgb(109,109,109);stroke-width:0.69px;"/>
        <g transform="matrix(1.9191,0,0,1.4595,35.296,-443.24)">
            <path d="M48.077,863.42L34.017,863.42L41.047,851.243L48.077,863.42Z" style="fill:none;stroke:rgb(109,109,109);stroke-width:0.4px;"/>
        </g>
        <g transform="matrix(1.3987,0,0,1.2176,46.132,-234.66)">
            <path d="M48.077,863.42L34.017,863.42L41.047,851.243L48.077,863.42Z" style="fill:none;stroke:rgb(109,109,109);stroke-width:0.52px;"/>
        </g>
        <ellipse cx="98.885" cy="795.95" rx="3.622" ry="3.623" style="fill:none;stroke:rgb(109,109,109);stroke-width:0.69px;"/>
        <g transform="matrix(1.5091,0,0,1.5095,66.864,-596.41)">
            <path d="M139.979,960.85L191.851,960.85C193.296,960.85 193.96,961.465 193.62,962.183L193.097,963.292C192.758,964.01 192.458,965.054 191.013,965.054L140.503,965.054C139.059,965.054 138.447,964.438 138.105,963.721L137.372,962.183C136.861,961.112 137.139,960.85 139.979,960.85Z" style="fill:none;stroke:rgb(109,109,109);stroke-width:0.45px;"/>
            <path d="M144.75,923.67L185.893,923.67C188.207,923.67 190.047,925.533 190.07,927.847L190.368,958.081C190.391,960.395 190.74,960.444 188.426,960.47L142.142,960.992C139.828,961.018 140.573,958.98 140.573,956.665L140.573,927.846C140.573,925.532 142.436,923.669 144.75,923.669L144.75,923.67Z" style="fill:none;stroke:rgb(109,109,109);stroke-width:0.45px;"/>
            <rect x="144.24" y="926.91" width="42.379" height="30.839" style="fill:none;stroke:rgb(109,109,109);stroke-width:0.45px;"/>
            <path d="M159.89,960.92L168.132,960.92C168.361,960.92 168.467,961.244 168.413,961.621L168.33,962.204C168.276,962.582 168.228,963.131 167.999,963.131L159.973,963.131C159.744,963.131 159.647,962.807 159.592,962.43L159.476,961.621C159.395,961.058 159.439,960.92 159.89,960.92Z" style="fill:none;stroke:rgb(109,109,109);stroke-width:0.45px;"/>
            <rect x="164.53" y="928.87" width="2" height="2.316" style="fill:none;stroke:rgb(109,109,109);stroke-width:0.45px;stroke-linecap:butt;stroke-linejoin:round;stroke-miterlimit:2;"/>
            <rect x="169.18" y="929.56" width="1" height="1" style="fill:none;stroke:rgb(109,109,109);stroke-width:0.45px;stroke-linecap:butt;stroke-linejoin:round;stroke-miterlimit:2;"/>
            <rect x="171.18" y="929.56" width="1" height="1" style="fill:none;stroke:rgb(109,109,109);stroke-width:0.45px;stroke-linecap:butt;stroke-linejoin:round;stroke-miterlimit:2;"/>
            <rect x="173.18" y="929.56" width="1" height="1" style="fill:none;stroke:rgb(109,109,109);stroke-width:0.45px;stroke-linecap:butt;stroke-linejoin:round;stroke-miterlimit:2;"/>
            <rect x="175.18" y="929.56" width="1" height="1" style="fill:none;stroke:rgb(109,109,109);stroke-width:0.45px;stroke-linecap:butt;stroke-linejoin:round;stroke-miterlimit:2;"/>
            <rect x="177.18" y="929.56" width="1" height="1" style="fill:none;stroke:rgb(109,109,109);stroke-width:0.45px;stroke-linecap:butt;stroke-linejoin:round;stroke-miterlimit:2;"/>
            <rect x="149.18" y="929.56" width="12" height="1" style="fill:none;stroke:rgb(109,109,109);stroke-width:0.45px;stroke-linecap:butt;stroke-linejoin:round;stroke-miterlimit:2;"/>
            <rect x="172.24" y="935.11" width="11.718" height="13.572" style="fill:none;stroke:rgb(109,109,109);stroke-width:0.45px;stroke-linecap:butt;stroke-linejoin:round;stroke-miterlimit:2;"/>
            <rect x="171.78" y="951.64" width="12" height="1" style="fill:none;stroke:rgb(109,109,109);stroke-width:0.45px;stroke-linecap:butt;stroke-linejoin:round;stroke-miterlimit:2;"/>
            <rect x="152.04" y="935.79" width="9" height="1" style="fill:none;stroke:rgb(109,109,109);stroke-width:0.45px;stroke-linecap:butt;stroke-linejoin:round;stroke-miterlimit:2;"/>
            <rect x="146.73" y="938.26" width="18" height="1" style="fill:none;stroke:rgb(109,109,109);stroke-width:0.45px;stroke-linecap:butt;stroke-linejoin:round;stroke-miterlimit:2;"/>
            <rect x="146.73" y="940.36" width="18" height="1" style="fill:none;stroke:rgb(109,109,109);stroke-width:0.45px;stroke-linecap:butt;stroke-linejoin:round;stroke-miterlimit:2;"/>
            <rect x="146.73" y="942.47" width="18" height="1" style="fill:none;stroke:rgb(109,109,109);stroke-width:0.45px;stroke-linecap:butt;stroke-linejoin:round;stroke-miterlimit:2;"/>
            <rect x="146.73" y="944.58" width="18" height="1" style="fill:none;stroke:rgb(109,109,109);stroke-width:0.45px;stroke-linecap:butt;stroke-linejoin:round;stroke-miterlimit:2;"/>
            <rect x="146.73" y="946.69" width="18" height="1" style="fill:none;stroke:rgb(109,109,109);stroke-width:0.45px;stroke-linecap:butt;stroke-linejoin:round;stroke-miterlimit:2;"/>
            <rect x="146.73" y="948.8" width="18" height="1" style="fill:none;stroke:rgb(109,109,109);stroke-width:0.45px;stroke-linecap:butt;stroke-linejoin:round;stroke-miterlimit:2;"/>
            <rect x="146.73" y="950.91" width="18" height="1" style="fill:none;stroke:rgb(109,109,109);stroke-width:0.45px;stroke-linecap:butt;stroke-linejoin:round;stroke-miterlimit:2;"/>
            <rect x="158.76" y="954.7" width="5" height="1" style="fill:none;stroke:rgb(109,109,109);stroke-width:0.45px;stroke-linecap:butt;stroke-linejoin:round;stroke-miterlimit:2;"/>
        </g>
        <g transform="matrix(1.0794,0,0,1.1192,204.02,-319.86)">
            <rect x="-99.181" y="855.27" width="54" height="79" style="fill:none;stroke:rgb(109,109,109);stroke-width:0.62px;"/>
            <rect x="-96.681" y="857.77" width="49" height="74" style="fill:none;stroke:rgb(109,109,109);stroke-width:0.62px;"/>
            <g transform="matrix(-1,0,0,1,0,0)">
                <rect x="55.033" y="878.79" width="33.6" height="0.4" style="fill:none;stroke:rgb(109,109,109);stroke-width:0.62px;"/>
            </g>
            <g transform="matrix(-1,0,0,1,0,0)">
                <rect x="55.149" y="874.44" width="33.6" height="0.4" style="fill:none;stroke:rgb(109,109,109);stroke-width:0.62px;"/>
            </g>
            <g transform="matrix(-1,0,0,1,0,0)">
                <rect x="55.265" y="883.14" width="33.6" height="0.4" style="fill:none;stroke:rgb(109,109,109);stroke-width:0.62px;"/>
            </g>
            <g transform="matrix(-1,0,0,1,0,0)">
                <rect x="55.381" y="887.5" width="33.6" height="0.4" style="fill:none;stroke:rgb(109,109,109);stroke-width:0.62px;"/>
            </g>
            <g transform="matrix(-1,0,0,1,0,0)">
                <rect x="55.498" y="891.85" width="33.6" height="0.4" style="fill:none;stroke:rgb(109,109,109);stroke-width:0.62px;"/>
            </g>
            <g transform="matrix(-1,0,0,1,0,0)">
                <rect x="55.614" y="896.2" width="33.6" height="0.4" style="fill:none;stroke:rgb(109,109,109);stroke-width:0.62px;"/>
            </g>
            <g transform="matrix(-1,0,0,1,0,0)">
                <rect x="55.73" y="900.55" width="33.6" height="0.4" style="fill:none;stroke:rgb(109,109,109);stroke-width:0.62px;"/>
            </g>
            <g transform="matrix(1,0,0,1,-41.957,-34.525)">
                <g transform="matrix(1,0,0,1,196.89,27.855)">
                    <g>
                        <rect x="-242.06" y="867.79" width="29.888" height="7.448" style="fill:none;stroke:rgb(109,109,109);stroke-width:0.62px;"/>
                        <g transform="matrix(1,0,0,1,0.31223,-3.4346)">
                            <rect x="-211.9" y="871.2" width="2.288" height="8.848" style="fill:none;stroke:rgb(109,109,109);stroke-width:0.62px;stroke-linecap:butt;stroke-linejoin:round;stroke-miterlimit:2;"/>
                            <path d="M-209.62,871.2L-207.332,871.2L-209.549,875.469L-207.332,880.048L-209.62,880.048L-212.249,875.246L-209.62,871.2Z" style="fill:none;stroke:rgb(109,109,109);stroke-width:0.62px;stroke-linecap:butt;stroke-linejoin:round;stroke-miterlimit:2;"/>
                        </g>
                        <g transform="matrix(-1,0,0,1,-454.54,-3.4346)">
                            <rect x="-211.9" y="871.2" width="2.288" height="8.848" style="fill:none;stroke:rgb(109,109,109);stroke-width:0.62px;stroke-linecap:butt;stroke-linejoin:round;stroke-miterlimit:2;"/>
                            <path d="M-209.62,871.2L-207.332,871.2L-209.549,875.469L-207.332,880.048L-209.62,880.048L-212.249,875.246L-209.62,871.2Z" style="fill:none;stroke:rgb(109,109,109);stroke-width:0.62px;stroke-linecap:butt;stroke-linejoin:round;stroke-miterlimit:2;"/>
                        </g>
                    </g>
                </g>
                <g transform="matrix(-1,0,0,1,0,0)">
                    <rect x="20.925" y="898.46" width="18.6" height="2" style="fill:none;stroke:rgb(109,109,109);stroke-width:0.62px;stroke-linecap:butt;stroke-linejoin:round;stroke-miterlimit:2;"/>
                </g>
            </g>
            <g transform="matrix(1,0,0,1,3.594,0.60043)">
                <g>
                    <rect x="-67.684" y="923.56" width="8.448" height="2.288" style="fill:none;stroke:rgb(109,109,109);stroke-width:0.62px;stroke-linecap:butt;stroke-linejoin:round;stroke-miterlimit:2;"/>
                    <g transform="matrix(-3.82857e-16,1,-1,-3.82857e-16,0,0)">
                        <rect x="910.93" y="59.236" width="12.637" height="8.448" style="fill:none;stroke:rgb(109,109,109);stroke-width:0.62px;stroke-linecap:butt;stroke-linejoin:round;stroke-miterlimit:2;"/>
                    </g>
                    <path d="M-59.236,925.85L-59.236,928.138L-63.312,925.921L-67.684,928.138L-67.684,925.85L-63.099,923.221L-59.236,925.85Z" style="fill:none;stroke:rgb(109,109,109);stroke-width:0.62px;stroke-linecap:butt;stroke-linejoin:round;stroke-miterlimit:2;"/>
                </g>
                <path d="M-63.305,903.64C-62.842,903.64 -62.323,904.078 -62.323,904.622L-62.323,918.657C-62.323,919.202 -62.842,919.64 -63.305,919.64C-63.768,919.64 -64.287,919.202 -64.287,918.657L-64.287,904.622C-64.287,904.078 -63.768,903.64 -63.305,903.64Z" style="fill:none;stroke:rgb(109,109,109);stroke-width:0.62px;stroke-linecap:butt;stroke-linejoin:round;stroke-miterlimit:2;"/>
                <path d="M-71.305,911.64C-71.305,911.177 -70.867,910.658 -70.323,910.658L-56.288,910.658C-55.743,910.658 -55.305,911.177 -55.305,911.64C-55.305,912.103 -55.743,912.622 -56.288,912.622L-70.323,912.622C-70.867,912.622 -71.305,912.103 -71.305,911.64Z" style="fill:none;stroke:rgb(109,109,109);stroke-width:0.62px;stroke-linecap:butt;stroke-linejoin:round;stroke-miterlimit:2;"/>
                <path d="M-65.375,903.92C-64.928,903.8 -64.313,904.089 -64.172,904.615L-60.539,918.172C-60.398,918.697 -60.787,919.255 -61.234,919.375C-61.681,919.495 -62.296,919.206 -62.437,918.68L-66.07,905.123C-66.211,904.598 -65.822,904.04 -65.375,903.92Z" style="fill:none;stroke:rgb(109,109,109);stroke-width:0.62px;stroke-linecap:butt;stroke-linejoin:round;stroke-miterlimit:2;"/>
                <path d="M-70.233,907.64C-70.001,907.239 -69.362,907.008 -68.891,907.28L-56.736,914.298C-56.265,914.57 -56.145,915.239 -56.376,915.64C-56.608,916.041 -57.247,916.272 -57.718,916L-69.873,908.982C-70.345,908.71 -70.465,908.041 -70.233,907.64Z" style="fill:none;stroke:rgb(109,109,109);stroke-width:0.62px;stroke-linecap:butt;stroke-linejoin:round;stroke-miterlimit:2;"/>
                <path d="M-70.233,915.64C-70.465,915.239 -70.345,914.57 -69.873,914.298L-57.718,907.28C-57.247,907.008 -56.608,907.239 -56.376,907.64C-56.145,908.041 -56.265,908.71 -56.736,908.982L-68.891,916C-69.362,916.272 -70.001,916.041 -70.233,915.64Z" style="fill:none;stroke:rgb(109,109,109);stroke-width:0.62px;stroke-linecap:butt;stroke-linejoin:round;stroke-miterlimit:2;"/>
                <path d="M-67.305,918.57C-67.706,918.338 -67.937,917.699 -67.665,917.228L-60.647,905.073C-60.375,904.602 -59.706,904.482 -59.305,904.713C-58.904,904.945 -58.673,905.584 -58.945,906.055L-65.963,918.21C-66.235,918.682 -66.904,918.802 -67.305,918.57Z" style="fill:none;stroke:rgb(109,109,109);stroke-width:0.62px;stroke-linecap:butt;stroke-linejoin:round;stroke-miterlimit:2;"/>
                <path d="M-67.305,904.72C-66.904,904.488 -66.235,904.608 -65.963,905.08L-58.945,917.235C-58.673,917.706 -58.904,918.345 -59.305,918.577C-59.706,918.808 -60.375,918.688 -60.647,918.217L-67.665,906.062C-67.937,905.591 -67.706,904.952 -67.305,904.72Z" style="fill:none;stroke:rgb(109,109,109);stroke-width:0.62px;stroke-linecap:butt;stroke-linejoin:round;stroke-miterlimit:2;"/>
                <path d="M-68.962,905.99C-68.635,905.663 -67.958,905.605 -67.573,905.99L-57.648,915.914C-57.263,916.299 -57.321,916.976 -57.648,917.304C-57.976,917.631 -58.653,917.689 -59.038,917.304L-68.962,907.379C-69.347,906.995 -69.29,906.317 -68.962,905.99Z" style="fill:none;stroke:rgb(109,109,109);stroke-width:0.62px;stroke-linecap:butt;stroke-linejoin:round;stroke-miterlimit:2;"/>
                <path d="M-71.032,909.57C-70.912,909.123 -70.354,908.734 -69.829,908.875L-56.272,912.508C-55.746,912.649 -55.457,913.264 -55.577,913.711C-55.697,914.159 -56.255,914.547 -56.78,914.406L-70.337,910.773C-70.863,910.633 -71.152,910.017 -71.032,909.57Z" style="fill:none;stroke:rgb(109,109,109);stroke-width:0.62px;stroke-linecap:butt;stroke-linejoin:round;stroke-miterlimit:2;"/>
                <path d="M-71.032,913.71C-71.152,913.263 -70.863,912.648 -70.337,912.507L-56.78,908.874C-56.255,908.733 -55.697,909.121 -55.577,909.569C-55.457,910.016 -55.746,910.631 -56.272,910.772L-69.829,914.405C-70.354,914.545 -70.912,914.157 -71.032,913.71Z" style="fill:none;stroke:rgb(109,109,109);stroke-width:0.62px;stroke-linecap:butt;stroke-linejoin:round;stroke-miterlimit:2;"/>
                <path d="M-68.962,917.3C-69.289,916.973 -69.347,916.295 -68.962,915.911L-59.038,905.986C-58.653,905.601 -57.976,905.659 -57.648,905.986C-57.321,906.314 -57.263,906.991 -57.648,907.376L-67.573,917.3C-67.957,917.685 -68.635,917.627 -68.962,917.3Z" style="fill:none;stroke:rgb(109,109,109);stroke-width:0.62px;stroke-linecap:butt;stroke-linejoin:round;stroke-miterlimit:2;"/>
                <path d="M-65.375,919.37C-65.822,919.25 -66.211,918.692 -66.07,918.167L-62.437,904.61C-62.296,904.084 -61.681,903.795 -61.234,903.915C-60.787,904.035 -60.398,904.593 -60.539,905.118L-64.172,918.675C-64.313,919.201 -64.928,919.49 -65.375,919.37Z" style="fill:none;stroke:rgb(109,109,109);stroke-width:0.62px;stroke-linecap:butt;stroke-linejoin:round;stroke-miterlimit:2;"/>
                <circle cx="-63.305" cy="911.64" r="6.774" style="fill:none;stroke:rgb(109,109,109);stroke-opacity:0.62;stroke-width:0.62px;stroke-linecap:butt;stroke-linejoin:round;stroke-miterlimit:2;"/>
            </g>
            <g transform="matrix(-1,0,0,1,0,0)">
                <rect x="74.351" y="914.6" width="16.6" height="0.4" style="fill:none;stroke:rgb(109,109,109);stroke-width:0.62px;"/>
            </g>
        </g>
        <rect x="157.62" y="906" width="7.675" height="36.168" style="fill:none;stroke:rgb(109,109,109);stroke-width:0.69px;"/>
        <rect x="166.42" y="906" width="9.434" height="36.168" style="fill:none;stroke:rgb(109,109,109);stroke-width:0.69px;"/>
        <rect x="161.02" y="910.48" width="0.885" height="3.653" style="fill:none;stroke:rgb(109,109,109);stroke-width:0.69px;"/>
        <rect x="161.02" y="934.97" width="0.885" height="3.653" style="fill:none;stroke:rgb(109,109,109);stroke-width:0.69px;"/>
        <rect x="161.02" y="922.72" width="0.885" height="3.653" style="fill:none;stroke:rgb(109,109,109);stroke-width:0.69px;"/>
        <rect x="166.86" y="911.11" width="8.552" height="1.393" style="fill:none;stroke:rgb(109,109,109);stroke-width:0.69px;"/>
        <rect x="166.86" y="935.6" width="8.552" height="1.393" style="fill:none;stroke:rgb(109,109,109);stroke-width:0.69px;"/>
        <rect x="169.52" y="921.2" width="3.225" height="3.653" style="fill:none;stroke:rgb(109,109,109);stroke-width:0.69px;"/>
        <g transform="matrix(-1,0,0,1,0,0)">
            <rect x="-157.61" y="905.42" width="7.675" height="36.168" style="fill:none;stroke:rgb(109,109,109);stroke-width:0.69px;"/>
        </g>
        <g transform="matrix(-1,0,0,1,0,0)">
            <rect x="-154.21" y="909.9" width="0.885" height="3.653" style="fill:none;stroke:rgb(109,109,109);stroke-width:0.69px;"/>
        </g>
        <g transform="matrix(-1,0,0,1,0,0)">
            <rect x="-154.21" y="934.39" width="0.885" height="3.653" style="fill:none;stroke:rgb(109,109,109);stroke-width:0.69px;"/>
        </g>
        <g transform="matrix(-1,0,0,1,0,0)">
            <rect x="-154.21" y="922.14" width="0.885" height="3.653" style="fill:none;stroke:rgb(109,109,109);stroke-width:0.69px;"/>
        </g>
        <g transform="matrix(0.99997,0.0081978,-0.0093967,0.99996,0,0)">
            <rect x="102.51" y="896.45" width="15.881" height="43.324" style="fill:none;stroke:rgb(109,109,109);stroke-width:0.69px;"/>
        </g>
        <g transform="matrix(0.99995,0.0096882,-0.0079511,0.99997,0,0)">
            <rect x="104.57" y="903.26" width="9.112" height="29.376" style="fill:none;stroke:rgb(109,109,109);stroke-width:0.69px;"/>
        </g>
        <g transform="matrix(1,0.00078234,-0.097999,0.99519,0,0)">
            <rect x="185.97" y="903.95" width="9.111" height="2.384" style="fill:none;stroke:rgb(109,109,109);stroke-width:0.72px;"/>
        </g>
        <g transform="matrix(1,0.00078234,-0.097999,0.99519,0,0)">
            <rect x="189.51" y="940.08" width="9.111" height="2.384" style="fill:none;stroke:rgb(109,109,109);stroke-width:0.72px;"/>
        </g>
        <g transform="matrix(0.99997,0.0081978,-0.0093967,0.99996,0,0)">
            <rect x="120.57" y="896.3" width="15.881" height="43.324" style="fill:none;stroke:rgb(109,109,109);stroke-width:0.69px;"/>
        </g>
        <g transform="matrix(0.99995,0.0096882,-0.0079511,0.99997,0,0)">
            <rect x="122.63" y="903.09" width="9.112" height="29.376" style="fill:none;stroke:rgb(109,109,109);stroke-width:0.69px;"/>
        </g>
        <g transform="matrix(1,0.00078234,-0.097999,0.99519,0,0)">
            <rect x="204.02" y="903.94" width="9.111" height="2.384" style="fill:none;stroke:rgb(109,109,109);stroke-width:0.72px;"/>
        </g>
        <g transform="matrix(1,0.00078234,-0.097999,0.99519,0,0)">
            <rect x="207.57" y="940.07" width="9.111" height="2.384" style="fill:none;stroke:rgb(109,109,109);stroke-width:0.72px;"/>
        </g>
        <g transform="matrix(-1,0,0,1,0,0)">
            <rect x="-121.49" y="917.01" width="3.225" height="3.653" style="fill:none;stroke:rgb(109,109,109);stroke-width:0.69px;"/>
        </g>
        <rect x="119.44" y="908.04" width="0.885" height="1.703" style="fill:none;stroke:rgb(109,109,109);stroke-width:0.69px;"/>
        <rect x="119.44" y="926.95" width="0.885" height="1.703" style="fill:none;stroke:rgb(109,109,109);stroke-width:0.69px;"/>
    </g>
</svg>
